<?xml version="1.0" encoding="UTF-8" standalone="no"?>
<!DOCTYPE svg PUBLIC "-//W3C//DTD SVG 1.1//EN"
 "http://www.w3.org/Graphics/SVG/1.1/DTD/svg11.dtd">
<!-- Generated by graphviz version 2.43.0 (0)
 -->
<!-- Title: G Pages: 1 -->
<svg width="990pt" height="129pt"
 viewBox="0.00 0.00 990.05 128.85" xmlns="http://www.w3.org/2000/svg" xmlns:xlink="http://www.w3.org/1999/xlink">
<g id="graph0" class="graph" transform="scale(1 1) rotate(0) translate(4 124.85)">
<title>G</title><style>.edge>path:hover{stroke-width:8}</style>
<polygon fill="white" stroke="transparent" points="-4,4 -4,-124.85 986.05,-124.85 986.05,4 -4,4"/>
<!-- assorted_hooks_check_dunder_all_exists -->
<g id="node1" class="node">
<title>assorted_hooks_check_dunder_all_exists</title><style>.edge>path:hover{stroke-width:8}</style>
<ellipse fill="#ac4949" stroke="black" cx="96.17" cy="-99.64" rx="96.33" ry="21.43"/>
<text text-anchor="middle" x="96.17" y="-102.64" font-family="Helvetica,sans-Serif" font-size="10.00" fill="#ffffff">assorted_hooks.</text>
<text text-anchor="middle" x="96.17" y="-91.64" font-family="Helvetica,sans-Serif" font-size="10.00" fill="#ffffff">check_dunder_all_exists</text>
</g>
<!-- assorted_hooks_check_imported_attributes -->
<g id="node2" class="node">
<title>assorted_hooks_check_imported_attributes</title><style>.edge>path:hover{stroke-width:8}</style>
<ellipse fill="#ac4949" stroke="black" cx="314.17" cy="-99.64" rx="103.89" ry="21.43"/>
<text text-anchor="middle" x="314.17" y="-102.64" font-family="Helvetica,sans-Serif" font-size="10.00" fill="#ffffff">assorted_hooks.</text>
<text text-anchor="middle" x="314.17" y="-91.64" font-family="Helvetica,sans-Serif" font-size="10.00" fill="#ffffff">check_imported_attributes</text>
</g>
<!-- assorted_hooks_check_no_mixed_args -->
<g id="node3" class="node">
<title>assorted_hooks_check_no_mixed_args</title><style>.edge>path:hover{stroke-width:8}</style>
<ellipse fill="#ac4949" stroke="black" cx="524.17" cy="-99.64" rx="87.86" ry="21.43"/>
<text text-anchor="middle" x="524.17" y="-102.64" font-family="Helvetica,sans-Serif" font-size="10.00" fill="#ffffff">assorted_hooks.</text>
<text text-anchor="middle" x="524.17" y="-91.64" font-family="Helvetica,sans-Serif" font-size="10.00" fill="#ffffff">check_no_mixed_args</text>
</g>
<!-- assorted_hooks_check_standard_generics -->
<g id="node4" class="node">
<title>assorted_hooks_check_standard_generics</title><style>.edge>path:hover{stroke-width:8}</style>
<ellipse fill="#ac4949" stroke="black" cx="729.17" cy="-99.64" rx="98.99" ry="21.43"/>
<text text-anchor="middle" x="729.17" y="-102.64" font-family="Helvetica,sans-Serif" font-size="10.00" fill="#ffffff">assorted_hooks.</text>
<text text-anchor="middle" x="729.17" y="-91.64" font-family="Helvetica,sans-Serif" font-size="10.00" fill="#ffffff">check_standard_generics</text>
</g>
<!-- assorted_hooks_check_typing -->
<g id="node5" class="node">
<title>assorted_hooks_check_typing</title><style>.edge>path:hover{stroke-width:8}</style>
<ellipse fill="#ac4949" stroke="black" cx="914.17" cy="-99.64" rx="67.76" ry="21.43"/>
<text text-anchor="middle" x="914.17" y="-102.64" font-family="Helvetica,sans-Serif" font-size="10.00" fill="#ffffff">assorted_hooks.</text>
<text text-anchor="middle" x="914.17" y="-91.64" font-family="Helvetica,sans-Serif" font-size="10.00" fill="#ffffff">check_typing</text>
</g>
<!-- assorted_hooks_utils -->
<g id="node6" class="node">
<title>assorted_hooks_utils</title><style>.edge>path:hover{stroke-width:8}</style>
<ellipse fill="#f31616" stroke="black" cx="524.17" cy="-21.21" rx="67.76" ry="21.43"/>
<text text-anchor="middle" x="524.17" y="-24.21" font-family="Helvetica,sans-Serif" font-size="10.00" fill="#ffffff">assorted_hooks.</text>
<text text-anchor="middle" x="524.17" y="-13.21" font-family="Helvetica,sans-Serif" font-size="10.00" fill="#ffffff">utils</text>
</g>
<!-- assorted_hooks_utils&#45;&gt;assorted_hooks_check_dunder_all_exists -->
<g id="edge1" class="edge">
<title>assorted_hooks_utils&#45;&gt;assorted_hooks_check_dunder_all_exists</title><style>.edge>path:hover{stroke-width:8}</style>
<path fill="none" stroke="black" d="M465.76,-32.06C401.02,-43.04 293.54,-61.5 201.17,-78.43 193.03,-79.92 184.54,-81.5 176.08,-83.1"/>
<polygon fill="#f31616" stroke="black" points="175.34,-79.68 166.17,-84.98 176.65,-86.56 175.34,-79.68"/>
</g>
<!-- assorted_hooks_utils&#45;&gt;assorted_hooks_check_imported_attributes -->
<g id="edge2" class="edge">
<title>assorted_hooks_utils&#45;&gt;assorted_hooks_check_imported_attributes</title><style>.edge>path:hover{stroke-width:8}</style>
<path fill="none" stroke="black" d="M481.42,-37.77C450.07,-49.18 407.13,-64.81 372.61,-77.37"/>
<polygon fill="#f31616" stroke="black" points="371.31,-74.12 363.11,-80.83 373.71,-80.7 371.31,-74.12"/>
</g>
<!-- assorted_hooks_utils&#45;&gt;assorted_hooks_check_no_mixed_args -->
<g id="edge3" class="edge">
<title>assorted_hooks_utils&#45;&gt;assorted_hooks_check_no_mixed_args</title><style>.edge>path:hover{stroke-width:8}</style>
<path fill="none" stroke="black" d="M524.17,-42.69C524.17,-50.55 524.17,-59.7 524.17,-68.29"/>
<polygon fill="#f31616" stroke="black" points="520.67,-68.37 524.17,-78.37 527.67,-68.37 520.67,-68.37"/>
</g>
<!-- assorted_hooks_utils&#45;&gt;assorted_hooks_check_standard_generics -->
<g id="edge4" class="edge">
<title>assorted_hooks_utils&#45;&gt;assorted_hooks_check_standard_generics</title><style>.edge>path:hover{stroke-width:8}</style>
<path fill="none" stroke="black" d="M566.64,-38.05C597.17,-49.43 638.67,-64.9 672.09,-77.36"/>
<polygon fill="#f31616" stroke="black" points="671.14,-80.74 681.73,-80.95 673.58,-74.18 671.14,-80.74"/>
</g>
<!-- assorted_hooks_utils&#45;&gt;assorted_hooks_check_typing -->
<g id="edge5" class="edge">
<title>assorted_hooks_utils&#45;&gt;assorted_hooks_check_typing</title><style>.edge>path:hover{stroke-width:8}</style>
<path fill="none" stroke="black" d="M583.87,-31.49C647.06,-41.65 749.56,-59.09 837.17,-78.43 842.87,-79.69 848.79,-81.08 854.71,-82.53"/>
<polygon fill="#f31616" stroke="black" points="854.05,-85.98 864.6,-85.01 855.75,-79.19 854.05,-85.98"/>
</g>
</g>
</svg>
