<?xml version="1.0" encoding="UTF-8" standalone="no"?>
<!DOCTYPE svg PUBLIC "-//W3C//DTD SVG 1.1//EN"
 "http://www.w3.org/Graphics/SVG/1.1/DTD/svg11.dtd">
<!-- Generated by graphviz version 2.43.0 (0)
 -->
<!-- Title: G Pages: 1 -->
<svg width="903pt" height="223pt"
 viewBox="0.00 0.00 903.44 222.84" xmlns="http://www.w3.org/2000/svg" xmlns:xlink="http://www.w3.org/1999/xlink">
<g id="graph0" class="graph" transform="scale(1 1) rotate(0) translate(4 218.84)">
<title>G</title><style>.edge>path:hover{stroke-width:8}</style>
<polygon fill="white" stroke="transparent" points="-4,4 -4,-218.84 899.44,-218.84 899.44,4 -4,4"/>
<!-- assorted_hooks_ast_check_direct_imports -->
<g id="node1" class="node">
<title>assorted_hooks_ast_check_direct_imports</title><style>.edge>path:hover{stroke-width:8}</style>
<ellipse fill="#ac4949" stroke="black" cx="85.56" cy="-185.84" rx="85.62" ry="28.98"/>
<text text-anchor="middle" x="85.56" y="-194.34" font-family="Helvetica,sans-Serif" font-size="10.00" fill="#ffffff">assorted_hooks.</text>
<text text-anchor="middle" x="85.56" y="-183.34" font-family="Helvetica,sans-Serif" font-size="10.00" fill="#ffffff">ast.</text>
<text text-anchor="middle" x="85.56" y="-172.34" font-family="Helvetica,sans-Serif" font-size="10.00" fill="#ffffff">check_direct_imports</text>
</g>
<!-- assorted_hooks_ast_check_dunder_all -->
<g id="node2" class="node">
<title>assorted_hooks_ast_check_dunder_all</title><style>.edge>path:hover{stroke-width:8}</style>
<ellipse fill="#ac4949" stroke="black" cx="260.56" cy="-185.84" rx="71.34" ry="28.98"/>
<text text-anchor="middle" x="260.56" y="-194.34" font-family="Helvetica,sans-Serif" font-size="10.00" fill="#ffffff">assorted_hooks.</text>
<text text-anchor="middle" x="260.56" y="-183.34" font-family="Helvetica,sans-Serif" font-size="10.00" fill="#ffffff">ast.</text>
<text text-anchor="middle" x="260.56" y="-172.34" font-family="Helvetica,sans-Serif" font-size="10.00" fill="#ffffff">check_dunder_all</text>
</g>
<!-- assorted_hooks_ast_check_no_mixed_args -->
<g id="node3" class="node">
<title>assorted_hooks_ast_check_no_mixed_args</title><style>.edge>path:hover{stroke-width:8}</style>
<ellipse fill="#ac4949" stroke="black" cx="437.56" cy="-185.84" rx="87.86" ry="28.98"/>
<text text-anchor="middle" x="437.56" y="-194.34" font-family="Helvetica,sans-Serif" font-size="10.00" fill="#ffffff">assorted_hooks.</text>
<text text-anchor="middle" x="437.56" y="-183.34" font-family="Helvetica,sans-Serif" font-size="10.00" fill="#ffffff">ast.</text>
<text text-anchor="middle" x="437.56" y="-172.34" font-family="Helvetica,sans-Serif" font-size="10.00" fill="#ffffff">check_no_mixed_args</text>
</g>
<!-- assorted_hooks_ast_check_standard_generics -->
<g id="node4" class="node">
<title>assorted_hooks_ast_check_standard_generics</title><style>.edge>path:hover{stroke-width:8}</style>
<ellipse fill="#ac4949" stroke="black" cx="642.56" cy="-185.84" rx="98.99" ry="28.98"/>
<text text-anchor="middle" x="642.56" y="-194.34" font-family="Helvetica,sans-Serif" font-size="10.00" fill="#ffffff">assorted_hooks.</text>
<text text-anchor="middle" x="642.56" y="-183.34" font-family="Helvetica,sans-Serif" font-size="10.00" fill="#ffffff">ast.</text>
<text text-anchor="middle" x="642.56" y="-172.34" font-family="Helvetica,sans-Serif" font-size="10.00" fill="#ffffff">check_standard_generics</text>
</g>
<!-- assorted_hooks_ast_check_typing -->
<g id="node5" class="node">
<title>assorted_hooks_ast_check_typing</title><style>.edge>path:hover{stroke-width:8}</style>
<ellipse fill="#ac4949" stroke="black" cx="827.56" cy="-185.84" rx="67.76" ry="28.98"/>
<text text-anchor="middle" x="827.56" y="-194.34" font-family="Helvetica,sans-Serif" font-size="10.00" fill="#ffffff">assorted_hooks.</text>
<text text-anchor="middle" x="827.56" y="-183.34" font-family="Helvetica,sans-Serif" font-size="10.00" fill="#ffffff">ast.</text>
<text text-anchor="middle" x="827.56" y="-172.34" font-family="Helvetica,sans-Serif" font-size="10.00" fill="#ffffff">check_typing</text>
</g>
<!-- assorted_hooks_check_github_issues -->
<g id="node6" class="node">
<title>assorted_hooks_check_github_issues</title><style>.edge>path:hover{stroke-width:8}</style>
<ellipse fill="#ac4949" stroke="black" cx="548.56" cy="-99.64" rx="82.96" ry="21.43"/>
<text text-anchor="middle" x="548.56" y="-102.64" font-family="Helvetica,sans-Serif" font-size="10.00" fill="#ffffff">assorted_hooks.</text>
<text text-anchor="middle" x="548.56" y="-91.64" font-family="Helvetica,sans-Serif" font-size="10.00" fill="#ffffff">check_github_issues</text>
</g>
<!-- assorted_hooks_utils -->
<g id="node7" class="node">
<title>assorted_hooks_utils</title><style>.edge>path:hover{stroke-width:8}</style>
<ellipse fill="#f91010" stroke="black" cx="492.56" cy="-21.21" rx="67.76" ry="21.43"/>
<text text-anchor="middle" x="492.56" y="-24.21" font-family="Helvetica,sans-Serif" font-size="10.00" fill="#ffffff">assorted_hooks.</text>
<text text-anchor="middle" x="492.56" y="-13.21" font-family="Helvetica,sans-Serif" font-size="10.00" fill="#ffffff">utils</text>
</g>
<!-- assorted_hooks_utils&#45;&gt;assorted_hooks_ast_check_direct_imports -->
<g id="edge1" class="edge">
<title>assorted_hooks_utils&#45;&gt;assorted_hooks_ast_check_direct_imports</title><style>.edge>path:hover{stroke-width:8}</style>
<path fill="none" stroke="black" d="M471.84,-41.65C458.51,-55.88 442.74,-76.51 437.56,-98.64"/>
<path fill="none" stroke="black" d="M437.56,-100.64C424.24,-157.56 237.19,-142.34 180.56,-156.85 173.06,-158.77 165.27,-160.88 157.51,-163.06"/>
<polygon fill="#f91010" stroke="black" points="156.39,-159.74 147.73,-165.84 158.3,-166.47 156.39,-159.74"/>
</g>
<!-- assorted_hooks_utils&#45;&gt;assorted_hooks_ast_check_dunder_all -->
<g id="edge2" class="edge">
<title>assorted_hooks_utils&#45;&gt;assorted_hooks_ast_check_dunder_all</title><style>.edge>path:hover{stroke-width:8}</style>
<path fill="none" stroke="black" d="M437.56,-100.64C434.57,-113.4 371.07,-141.3 320.98,-161.5"/>
<polygon fill="#f91010" stroke="black" points="319.46,-158.33 311.48,-165.3 322.06,-164.83 319.46,-158.33"/>
</g>
<!-- assorted_hooks_utils&#45;&gt;assorted_hooks_ast_check_no_mixed_args -->
<g id="edge3" class="edge">
<title>assorted_hooks_utils&#45;&gt;assorted_hooks_ast_check_no_mixed_args</title><style>.edge>path:hover{stroke-width:8}</style>
<path fill="none" stroke="black" d="M437.56,-100.64C434.1,-115.42 433.45,-132.05 433.89,-146.61"/>
<polygon fill="#f91010" stroke="black" points="430.41,-146.97 434.39,-156.79 437.4,-146.63 430.41,-146.97"/>
</g>
<!-- assorted_hooks_utils&#45;&gt;assorted_hooks_ast_check_standard_generics -->
<g id="edge4" class="edge">
<title>assorted_hooks_utils&#45;&gt;assorted_hooks_ast_check_standard_generics</title><style>.edge>path:hover{stroke-width:8}</style>
<path fill="none" stroke="black" d="M437.56,-100.64C434.75,-112.64 446.21,-114.16 456.56,-120.85 474.99,-132.76 521.77,-148.84 563.81,-161.9"/>
<polygon fill="#f91010" stroke="black" points="562.94,-165.29 573.53,-164.89 565,-158.6 562.94,-165.29"/>
</g>
<!-- assorted_hooks_utils&#45;&gt;assorted_hooks_ast_check_typing -->
<g id="edge5" class="edge">
<title>assorted_hooks_utils&#45;&gt;assorted_hooks_ast_check_typing</title><style>.edge>path:hover{stroke-width:8}</style>
<path fill="none" stroke="black" d="M437.56,-100.64C434.75,-112.64 445.56,-115.28 456.56,-120.85 573.98,-180.36 622.54,-126.17 750.56,-156.85 756.73,-158.33 763.09,-160.15 769.39,-162.13"/>
<polygon fill="#f91010" stroke="black" points="768.6,-165.56 779.19,-165.38 770.8,-158.91 768.6,-165.56"/>
</g>
<!-- assorted_hooks_utils&#45;&gt;assorted_hooks_check_github_issues -->
<g id="edge6" class="edge">
<title>assorted_hooks_utils&#45;&gt;assorted_hooks_check_github_issues</title><style>.edge>path:hover{stroke-width:8}</style>
<path fill="none" stroke="black" d="M507.27,-42.29C513.58,-50.89 521.05,-61.09 527.89,-70.43"/>
<polygon fill="#f91010" stroke="black" points="525.21,-72.7 533.94,-78.69 530.86,-68.56 525.21,-72.7"/>
</g>
</g>
</svg>
